<svg xmlns="http://www.w3.org/2000/svg" viewBox="0 0 100 100">
  <defs>
    <linearGradient id="grad" x1="0%" y1="0%" x2="100%" y2="100%">
      <stop offset="0%" style="stop-color:#8b5cf6;stop-opacity:1" />
      <stop offset="50%" style="stop-color:#a855f7;stop-opacity:1" />
      <stop offset="100%" style="stop-color:#d946ef;stop-opacity:1" />
    </linearGradient>
  </defs>
  
  <!-- Smooth rounded square background -->
  <rect x="15" y="15" width="70" height="70" rx="20" fill="url(#grad)" opacity="0.15"/>
  
  <!-- Two smooth overlapping documents with sharing arrows -->
  <!-- Back document -->
  <path d="M 35 30 L 60 30 L 60 35 L 65 40 L 65 65 Q 65 68 62 68 L 35 68 Q 32 68 32 65 L 32 33 Q 32 30 35 30 Z" 
        fill="url(#grad)" opacity="0.6"/>
  <path d="M 60 30 L 60 38 Q 60 40 62 40 L 65 40 Z" fill="url(#grad)" opacity="0.4"/>
  
  <!-- Front document -->
  <path d="M 40 35 L 65 35 L 65 40 L 70 45 L 70 70 Q 70 73 67 73 L 40 73 Q 37 73 37 70 L 37 38 Q 37 35 40 35 Z" 
        fill="url(#grad)"/>
  <path d="M 65 35 L 65 43 Q 65 45 67 45 L 70 45 Z" fill="url(#grad)" opacity="0.7"/>
  
  <!-- Smooth sharing arrows -->
  <path d="M 45 50 Q 45 55 50 55 L 55 55 L 52 58 L 60 50 L 52 42 L 55 45 L 50 45 Q 45 45 45 50 Z" 
        fill="#ffffff" opacity="0.9"/>
</svg>
